<?xml version="1.0" standalone="no"?>
<!DOCTYPE svg PUBLIC "-//W3C//DTD SVG 20010904//EN"
 "http://www.w3.org/TR/2001/REC-SVG-20010904/DTD/svg10.dtd">
<svg version="1.0" xmlns="http://www.w3.org/2000/svg"
 width="1080.000000pt" height="1184.000000pt" viewBox="0 0 1080.000000 1184.000000"
 preserveAspectRatio="xMidYMid meet">
<metadata>
Created by potrace 1.16, written by Peter Selinger 2001-2019
</metadata>
<g transform="translate(0.000000,1184.000000) scale(0.100000,-0.100000)"
fill="#000000" stroke="none">
<path d="M5449 11376 c-14 -6 -47 -30 -73 -53 -49 -43 -384 -269 -541 -365
-386 -235 -844 -437 -1220 -538 -676 -181 -1330 -187 -2334 -19 -186 31 -217
31 -245 3 -25 -24 -19 -60 19 -117 46 -68 89 -180 112 -292 14 -72 18 -135 17
-315 0 -383 -46 -664 -280 -1725 -131 -596 -137 -621 -163 -770 -180 -1003
-128 -1874 155 -2613 255 -663 684 -1224 1275 -1669 230 -172 342 -244 664
-428 770 -439 1343 -850 1920 -1376 205 -187 606 -595 600 -611 -3 -7 19 -32
51 -57 l56 -44 70 79 c122 137 587 594 738 725 605 525 1090 862 1910 1329
271 154 601 387 801 566 152 135 383 379 491 519 100 129 278 391 278 411 0 2
11 22 25 44 14 22 54 97 89 168 429 858 516 1888 262 3127 -14 66 -73 336
-131 600 -204 922 -263 1261 -281 1635 -7 156 7 331 36 446 21 83 76 208 110
251 39 50 13 123 -45 123 -14 0 -103 -13 -198 -30 -708 -122 -1322 -150 -1812
-84 -558 75 -1099 270 -1663 600 -181 105 -572 364 -572 379 -1 5 -22 33 -48
61 -44 48 -49 51 -73 40z m76 -253 c680 -483 1339 -790 1980 -921 281 -58 540
-82 886 -82 370 0 779 39 1233 116 36 7 39 6 31 -12 -125 -301 -122 -706 11
-1427 42 -228 73 -377 204 -968 202 -911 244 -1209 244 -1764 0 -351 -10 -481
-59 -770 -134 -792 -505 -1480 -1093 -2028 -288 -268 -514 -428 -990 -701
-461 -265 -806 -488 -1164 -754 -421 -312 -727 -579 -1119 -974 l-227 -228
-273 273 c-689 688 -1359 1192 -2274 1712 -307 175 -426 251 -620 395 -727
542 -1207 1260 -1399 2092 -81 352 -109 606 -109 1003 0 491 55 914 204 1575
283 1253 344 1613 343 2030 0 255 -14 358 -67 503 -13 37 -21 67 -16 67 4 0
79 -11 165 -25 215 -35 525 -71 728 -86 223 -15 725 -7 906 16 748 92 1408
358 2190 883 85 57 162 110 170 118 8 8 19 14 25 14 5 0 46 -26 90 -57z"/>
<path d="M6040 10176 c0 -2 9 -25 21 -50 62 -140 95 -392 79 -600 l-9 -120 56
-125 c215 -487 394 -1078 477 -1581 53 -319 61 -428 61 -835 0 -397 -7 -493
-56 -790 -67 -408 -213 -892 -379 -1260 -35 -79 -35 -79 49 30 130 168 299
318 458 408 249 141 538 165 844 71 50 -15 89 -33 89 -40 0 -17 -108 -162
-205 -274 -217 -249 -461 -395 -730 -436 -156 -24 -344 -4 -520 55 -33 11 -60
19 -61 18 -1 -1 -39 -76 -84 -167 -204 -408 -506 -882 -854 -1340 -109 -143
-299 -383 -358 -452 l-49 -57 68 46 c233 156 471 210 746 168 98 -15 206 -41
220 -54 4 -4 -18 -48 -49 -97 -184 -295 -416 -513 -648 -611 -137 -58 -231
-77 -391 -76 -86 0 -169 6 -215 16 -41 8 -76 14 -78 13 -2 -2 722 -678 773
-721 6 -5 50 -47 96 -93 l85 -83 89 98 c587 651 1236 1180 2005 1637 311 185
385 231 465 285 1137 773 1625 1917 1459 3425 -23 211 -68 467 -140 805 -36
168 -79 369 -95 446 -105 492 -155 772 -184 1034 -23 205 -17 497 14 617 22
88 59 178 90 223 l20 27 -227 -37 c-376 -62 -565 -80 -878 -86 -287 -6 -455 3
-647 33 -54 9 -100 14 -102 12 -2 -2 -8 -52 -14 -111 -36 -337 -166 -589 -393
-763 -117 -91 -394 -212 -420 -186 -8 8 -12 79 -12 219 0 226 13 326 60 483
49 163 170 358 273 441 41 33 51 49 29 49 -23 0 -296 114 -433 181 -77 37
-195 100 -263 138 -118 69 -132 75 -132 67z m1623 -1762 c10 -119 1 -311 -18
-433 -68 -417 -301 -693 -702 -832 -57 -20 -89 -27 -96 -20 -5 5 -12 86 -15
178 -17 621 210 995 713 1179 50 18 95 32 100 30 6 -1 14 -47 18 -102z m313
-1448 c3 -8 -4 -47 -16 -88 -189 -649 -541 -967 -1085 -980 l-120 -3 3 35 c5
62 91 301 152 422 211 419 521 615 993 626 50 2 69 -2 73 -12z m-1181 -3021
c38 -8 99 -24 135 -36 88 -29 250 -110 250 -125 0 -19 -203 -205 -315 -289
-127 -96 -326 -196 -460 -232 -87 -23 -119 -26 -250 -27 -160 0 -221 10 -360
61 -86 32 -225 100 -225 111 0 10 167 173 240 234 179 149 398 261 590 302 88
19 307 20 395 1z"/>
</g>
</svg>
